
        <svg xmlns="http://www.w3.org/2000/svg" xmlns:xlink="http://www.w3.org/1999/xlink" version="1.1" width="3157.9794092480943" height="1090.3729351367133" viewBox="-78.98970462404725 0 3157.9794092480943 1090.3729351367133">
			
			<g transform="scale(7.8989704624047254) translate(10, 10)">
				<defs id="SvgjsDefs1076"/><g id="SvgjsG1077" featureKey="QMusi1-0" transform="matrix(28.459450173188205,0,0,28.459450173188205,-38.03255882770608,-2.715583623425143)" fill="#000"><g xmlns="http://www.w3.org/2000/svg"><g><polygon points="2.179,1.009 0.989,2.171 1.872,3.302 2.465,3.292 3.062,2.759 2.767,2.428 2.292,2.852     2.085,2.856 1.583,2.211 2.358,1.453 3.225,1.453 4.014,2.49 4.014,1.759 3.443,1.009   "/></g><g><polygon points="2.544,1.708 1.947,2.242 2.242,2.571 2.717,2.148 2.923,2.145 3.426,2.79 2.649,3.547     1.784,3.547 0.985,2.499 0.985,3.23 1.565,3.991 2.83,3.991 4.014,2.833 4.014,2.824 3.137,1.697   "/></g></g></g><g id="SvgjsG1078" featureKey="UyNsn2-0" transform="matrix(4.042236014818246,0,0,4.042236014818246,103.97888307680307,11.405720499798736)" fill="#000"><path d="M2.44 19.42 c-0.18 0 -0.28 0.04 -0.4 0.06 c-0.18 0 -0.14 0 -0.16 -0.02 l-0.06 0.02 c0 0.06 0.02 0.06 0.06 0.08 c0 -0.02 -0.06 0.04 -0.1 0.12 l0.02 0 c0 0.02 -0.64 0.52 -0.74 0.52 c-0.46 0 -0.46 -0.54 -0.46 -0.62 c0 -0.04 0 -0.04 0.02 -0.1 c0 -2.24 -0.1 -1.9 -0.1 -3.24 c0 0 0.02 -0.02 0.02 -0.04 c0 -0.06 -0.04 -0.16 -0.04 -0.26 c0 -0.18 0.08 -0.3 0.6 -0.3 c0.06 0 0.14 0.06 0.32 0.38 c0 0.1 0.36 0.4 0.4 0.58 c-0.02 0.02 -0.04 0.04 -0.04 0.06 c0 0.08 0.3 0.2 0.3 0.32 c0 0.02 -0.02 0.04 -0.02 0.04 c0 0.12 0.2 0.22 0.2 0.28 c0.24 0.44 0.26 0.42 0.58 0.74 c0.1 0 0.84 1.32 1.4 1.32 c0.72 0.06 0.86 0.32 1.62 0.32 c0.42 0 0.36 -0.02 0.5 -0.1 c-0.04 0.04 -0.02 0.04 -0.04 0.04 c0 0 0.14 -0.2 0.8 -0.2 c0.3 0 0.88 -0.56 1 -0.64 c0.04 -0.04 0.24 -0.12 0.24 -0.16 c0 -0.12 0.42 -0.7 0.48 -0.76 c-0.02 -0.04 -0.02 -0.08 -0.02 -0.1 c0 -0.3 0.32 0.16 0.32 -1.7 c-0.02 -0.06 -0.08 -0.7 -0.22 -0.82 c-0.06 0 -0.06 -0.46 -0.54 -0.78 c0 -0.02 0.02 -0.12 0.02 -0.16 c-0.78 -0.04 -0.38 -0.44 -0.9 -0.44 c-0.98 0 -0.2 -0.3 -1.26 -0.3 c-0.1 -0.1 -0.98 -0.08 -1.18 -0.2 c-0.04 0 -0.18 0.04 -0.22 0.04 c-0.24 0 -0.04 -0.2 -0.58 -0.2 c-1.82 -0.1 -0.84 -0.44 -1.46 -0.44 l0 -0.04 c0.06 0 0.14 -0.02 0.2 0.04 c0 0 0.1 -0.04 0.1 -0.06 c0 0 -0.04 -0.04 -0.04 -0.06 l-0.62 0 c-0.2 -0.18 -0.18 -0.3 -0.34 -0.34 c0 -0.02 -0.22 0.02 -0.56 -0.44 c0 -0.14 -0.44 -0.66 -0.54 -0.74 c-0.18 -0.94 -0.4 -1.5 -0.4 -2.22 c0.04 -0.22 0 -0.5 0.08 -0.64 l0 0.02 c0.02 0 0.1 -0.68 0.16 -0.64 c-0.02 0 -0.04 -0.02 -0.04 -0.04 c0 -0.16 0.42 -0.6 0.42 -0.76 c-0.02 -0.02 -0.02 -0.04 -0.02 -0.04 c0 -0.14 0.32 -0.28 0.32 -0.34 s0.26 -0.48 0.38 -0.56 c-0.02 0.02 -0.02 0.04 -0.02 0.04 c-0.02 0 0.98 -0.66 1 -0.68 c1.22 -0.2 0.16 -0.54 1.52 -0.54 l1.96 0 c0.04 0 0.46 0 0.66 0.16 c0.82 0.04 0.68 0.52 1.04 0.52 c0.66 0 0.48 -0.04 0.68 -0.24 c-0.08 -0.1 0.54 -0.02 0.6 -0.28 l0.26 0 c0.04 0 0.2 0.16 0.22 0.2 c0.06 2.48 0.18 2.42 0.18 3.72 c0 0.1 -0.18 0.16 -0.26 0.32 l-0.28 0 l0 -0.08 c-0.06 0 -0.48 -0.28 -0.48 -0.5 l0 0.02 c-0.02 0 -0.16 -0.5 -0.38 -0.58 l0.02 0 c0 -0.06 -0.26 -0.26 -0.26 -0.4 c-0.3 -0.44 -0.26 -0.42 -0.5 -0.66 l0.02 0 c0 -0.02 -0.5 -0.32 -0.5 -0.46 c0 -0.3 -0.74 -0.66 -0.9 -0.82 c0.06 -0.12 -0.52 -0.28 -1.1 -0.28 c-0.02 0 -0.04 0.02 -0.06 0.02 c-0.2 0 -0.12 -0.34 -0.18 -0.34 c-0.04 0.04 -0.06 0.04 -0.08 0.08 c-0.02 0 -0.1 -0.02 -0.16 -0.04 c-0.12 0.44 -0.32 0.2 -0.38 0.32 c-0.12 -0.06 -0.04 -0.12 -0.12 -0.14 c-0.42 0.2 -0.3 0.18 -1.22 0.64 c-0.6 1.18 -0.28 -0.28 -0.94 1.52 l0 0.88 l0 -0.02 c0.02 0 0.1 0.78 0.28 0.88 c0.04 0.06 0.3 0.26 0.38 0.42 c0.14 0 0.32 0.52 0.9 0.52 c0.24 0.26 1.18 0.2 2.14 0.44 c0.28 0.08 1.74 0.08 2.08 0.48 l-0.02 0 c0 0.04 0.48 0.08 0.56 0.14 c0 -0.04 0.96 0.56 0.96 0.68 c0 0.02 0 0.02 -0.02 0.02 c0.34 0 0.68 0.76 0.82 0.86 c0.1 0.72 0.38 0.5 0.38 1.06 c0.24 0.76 0.2 0.94 0.2 1.88 c-0.06 0.06 -0.1 0.76 -0.2 0.8 c0 1.02 -0.52 0.96 -0.52 1.4 l-0.26 0.24 c0 0.04 -0.02 0.12 -0.02 0.12 c-0.4 0.36 -0.26 0.42 -0.44 0.5 c-0.06 0 -0.16 0.3 -0.5 0.4 c-0.38 0.58 -0.54 0.12 -0.94 0.7 c-1.8 0 0.04 0.44 -1.96 0.44 c-2.28 0 -1.48 -0.06 -2.22 -0.24 c-0.02 0 -0.02 0.02 -0.04 0.02 c-0.12 0 -0.3 -0.16 -0.46 -0.16 c0 -0.02 -0.3 -0.06 -0.3 -0.1 c0 0.02 0.02 0.02 0.02 0.02 c0 -0.02 -0.28 -0.42 -0.5 -0.42 c-0.04 0 -0.08 0.02 -0.12 0.04 z M6.24 20.14 c-0.02 0 -0.02 0.02 -0.02 0.04 c0 0 0 0.02 0.02 0.02 s0.02 -0.02 0.02 -0.02 c0 -0.02 0 -0.04 -0.02 -0.04 z M4.74 20.1 c-0.02 0 -0.02 0.02 -0.02 0.02 c0 0.02 0 0.02 0.02 0.02 s0.02 0 0.02 -0.02 c0 0 0 -0.02 -0.02 -0.02 z M6.64 20.1 c-0.02 0 -0.04 0.02 -0.04 0.04 s0.02 0.04 0.04 0.04 s0.02 -0.02 0.02 -0.04 s0 -0.04 -0.02 -0.04 z M6.2 20.06 c-0.02 0 -0.04 0.02 -0.04 0.04 s0.02 0.04 0.04 0.04 s0.02 -0.02 0.02 -0.04 s0 -0.04 -0.02 -0.04 z M6.64 20.02 c-0.04 0 -0.06 0 -0.06 0.02 l0.02 0.02 l0.04 0 l0 -0.04 z M5.18 20.02 c-0.02 0 -0.02 0 -0.02 0.02 c0 0 0 0.02 0.02 0.02 s0.02 -0.02 0.02 -0.02 c0 -0.02 0 -0.02 -0.02 -0.02 z M6.64 19.88 l0 0.1 c0.04 -0.02 0.08 -0.06 0.1 -0.1 l-0.1 0 z M7.18 19.82 c-0.18 0 -0.18 0.06 -0.18 0.12 c0.02 0 0.06 -0.02 0.1 -0.04 c0.02 0 0.08 0.02 0.12 0.04 l0.08 -0.04 s0 -0.08 -0.12 -0.08 z M4.8 19.84 l0 0.04 l0.08 0 l0 -0.04 l-0.08 0 z M5.8 19.84 c-0.02 0 -0.02 0.02 -0.02 0.04 c0 0 0 0.02 0.02 0.02 s0.02 -0.02 0.02 -0.02 c0 -0.02 0 -0.04 -0.02 -0.04 z M6.36 19.84 c-0.02 0 -0.04 0.02 -0.04 0.04 c0 0 0.02 0.02 0.04 0.02 s0.02 -0.02 0.02 -0.02 c0 -0.02 0 -0.04 -0.02 -0.04 z M4.52 19.72 c-0.02 0 -0.04 0 -0.04 0.02 l0.04 0 l0.02 0 c0 -0.02 0 -0.02 -0.02 -0.02 z M3.9 19.66 c-0.02 0 -0.04 0 -0.06 0.02 z M3.84 19.58 c-0.02 0 -0.04 0.02 -0.04 0.04 s0.02 0.04 0.04 0.04 s0.02 -0.02 0.02 -0.04 s0 -0.04 -0.02 -0.04 z M3.9 19.56 c-0.02 0 -0.02 0.02 -0.02 0.04 c0 0 0 0.02 0.02 0.02 s0.02 -0.02 0.02 -0.02 c0 -0.02 0 -0.04 -0.02 -0.04 z M1.04 19.52 c-0.02 0 -0.04 0.02 -0.04 0.04 c0 0 0.02 0.02 0.04 0.02 l0.02 -0.02 c0 -0.02 -0.02 -0.04 -0.02 -0.04 z M3.84 19.52 c-0.02 0 -0.04 0.02 -0.04 0.04 c0 0 0.02 0.02 0.04 0.02 s0.02 -0.02 0.02 -0.02 c0 -0.02 0 -0.04 -0.02 -0.04 z M0.76 19.46 c-0.02 0 -0.04 0.02 -0.04 0.02 c0 0.02 0.02 0.04 0.04 0.04 c0 0 0.02 -0.02 0.02 -0.04 z M4 19.48 l-0.04 0 c0 0.02 0 0.04 0.02 0.04 c0 0 0.02 -0.02 0.02 -0.04 z M7.92 19.46 c-0.02 0 -0.02 0.02 -0.02 0.02 l0.04 0 c0 0.02 0 -0.02 -0.02 -0.02 z M0.76 19.12 l0 -0.08 l0 0.08 z M8.84 19.08 c-0.02 0 -0.04 0.02 -0.04 0.04 l0.06 0 c0 -0.02 -0.02 -0.04 -0.02 -0.04 z M9.12 18.84 l0 0.04 l0.02 0 z M9.06 18.78 c-0.02 0 -0.04 0.02 -0.04 0.04 c0 0 0.02 0.02 0.04 0.02 s0.02 -0.02 0.02 -0.02 c0 -0.02 0 -0.04 -0.02 -0.04 z M9.18 18.8 l0.04 -0.02 z M9.3 18.68 l0 0 l-0.04 0.04 c0.02 -0.02 0.02 -0.04 0.04 -0.04 z M0.82 18.66 c-0.02 0 -0.04 0 -0.04 0.02 c0 0 0.04 0 0.04 -0.02 l0 0 z M0.76 18.46 l0 0.12 l0.02 0 c0 -0.02 0 -0.1 -0.02 -0.12 z M9.92 18.02 c-0.02 0 -0.02 0.02 -0.02 0.02 s0 0.02 0.02 0.02 s0.02 -0.02 0.02 -0.02 s0 -0.02 -0.02 -0.02 z M9.3 16.38 l0.04 0.02 l0.04 -0.02 l-0.08 0 z M0.76 16.06 l-0.04 0 c0 0.02 0 0.04 0.02 0.04 c0 0 0.02 -0.02 0.02 -0.04 z M10.72 15.719999999999999 l0 -0.02 c-0.02 0 -0.02 0 -0.02 0.02 s0 0.04 0.02 0.04 l0 -0.04 z M2.32 12.34 c-0.02 0 -0.04 0.02 -0.04 0.04 s0.02 0.04 0.04 0.04 s0.02 -0.02 0.02 -0.04 s0 -0.04 -0.02 -0.04 z M1.5 11.48 c-0.02 0 -0.04 0.02 -0.04 0.04 c0 0 0.02 0.02 0.04 0.02 l0.02 -0.02 c0 -0.02 -0.02 -0.04 -0.02 -0.04 z M7.92 11.28 c-0.02 0 -0.02 0.02 -0.02 0.04 c0 0 0 0.02 0.02 0.02 s0.02 -0.02 0.02 -0.02 c0 -0.02 0 -0.04 -0.02 -0.04 z M1.26 11.2 l0 0.04 l0.04 -0.04 l-0.04 0 z M3.16 11.02 c0 0 -0.02 0 -0.02 0.02 l0.04 0 c0 -0.02 -0.02 -0.02 -0.02 -0.02 z M5.14 10.76 c-0.04 0 -0.14 0.04 -0.14 0.06 s0.02 0.02 0.02 0.02 c0.04 0 0.08 -0.04 0.12 -0.08 z M0.88 10.18 c-0.02 0 -0.04 -0.02 -0.04 0.1 c0 0.02 0.02 0.06 0.02 0.06 c0.02 0 0.04 -0.04 0.04 -0.06 c0 -0.04 -0.02 -0.08 -0.02 -0.1 z M0.82 9.98 c-0.02 0 -0.04 0.02 -0.04 0.04 s0.02 0.04 0.04 0.04 l0 -0.08 z M9.38 6.460000000000001 c-0.02 0 -0.04 0.02 -0.04 0.04 c0 0 0.02 0.02 0.04 0.02 s0.02 -0.02 0.02 -0.02 c0 -0.02 0 -0.04 -0.02 -0.04 z M9.66 6.460000000000001 c-0.02 0 -0.02 0.02 -0.02 0.04 c0 0 0 0.02 0.02 0.02 s0.02 -0.02 0.02 -0.02 c0 -0.02 0 -0.04 -0.02 -0.04 z M9.74 6.460000000000001 c-0.02 0 -0.04 0.02 -0.04 0.04 c0 0 0.02 0.02 0.04 0.02 l0.02 -0.02 c0 -0.02 -0.02 -0.04 -0.02 -0.04 z M5.26 6.02 l0 -0.22 c0.02 -0.02 0.06 -0.04 0.08 -0.06 l0.04 0.04 c0 0.06 -0.08 0.16 -0.08 0.28 z M9.66 5.9399999999999995 c-0.02 0 -0.02 0.02 -0.02 0.04 c0 0 0 0.02 0.02 0.02 s0.02 -0.02 0.02 -0.02 c0 -0.02 0 -0.04 -0.02 -0.04 z M3.1 5.84 c-0.1 0.02 -0.1 0.1 -0.1 0.1 c0.02 -0.02 0.1 -0.06 0.1 -0.08 l0 -0.02 z M2.62 5.74 c0 0.04 0.06 0.06 0.1 0.06 c-0.02 -0.06 -0.1 -0.06 -0.12 -0.06 l0.02 0 z M9.58 5.779999999999999 c0.02 0.02 0.04 0.02 0.06 0.02 c0.08 0 0.1 -0.06 0.1 -0.12 z M2.94 5.619999999999999 c-0.06 0 -0.04 0.06 -0.04 0.12 l0.04 0 l0 -0.12 z M6.9 5.4399999999999995 c-0.06 0.1 -0.04 0.18 -0.04 0.26 c0.08 -0.02 0.1 -0.12 0.1 -0.22 c-0.02 -0.02 -0.02 -0.04 -0.06 -0.04 z M2.94 5.52 c-0.02 0 -0.04 0 -0.04 0.02 l0.04 0 l0.02 0 c0 -0.02 0 -0.02 -0.02 -0.02 z M9.38 5.48 c0 -0.02 -0.02 -0.02 -0.06 -0.02 c-0.02 0 -0.04 0 -0.04 0.02 s0.02 0.04 0.04 0.04 c0.04 0 0.06 -0.02 0.06 -0.04 z M9.46 5.42 c-0.02 0 -0.04 0.02 -0.04 0.02 l0.02 0 l0.02 0 l0 -0.02 z M7.48 5.42 l-0.02 -0.02 z M6.24 5.4 c0 -0.02 -0.02 -0.02 -0.02 -0.02 s-0.02 0 -0.02 0.02 s0.02 0.02 0.02 0.02 s0.02 0 0.02 -0.02 z M8.96 5.4 c0 -0.02 -0.02 -0.02 -0.02 -0.02 c-0.02 0 -0.02 0 -0.02 0.02 s0 0.02 0.02 0.02 c0 0 0.02 0 0.02 -0.02 z M9.22 5.359999999999999 c-0.02 0 -0.04 0.02 -0.04 0.04 c0 0 0.02 0.02 0.04 0.02 s0.02 -0.02 0.02 -0.02 c0 -0.02 0 -0.04 -0.02 -0.04 z M9.66 5.32 l0 0.08 l0.04 -0.04 z M3.58 5.16 c0 0.06 0.04 0.14 0.04 0.2 l0.04 -0.1 s-0.02 -0.08 -0.04 -0.14 z M7.1 5.24 c-0.02 0 -0.04 0.02 -0.04 0.02 s0.02 0.02 0.04 0.02 s0.02 -0.02 0.02 -0.02 s0 -0.02 -0.02 -0.02 z M9.28 5.119999999999999 c-0.06 0.02 -0.08 0.08 -0.1 0.14 c0.12 0 0.1 -0.06 0.1 -0.14 z M9.66 5.24 l0 0.02 l0.04 0 z M9.66 5.119999999999999 c-0.02 0 -0.02 0.02 -0.02 0.02 c0 0.02 0 0.02 0.02 0.02 s0.02 0 0.02 -0.02 c0 0 0 -0.02 -0.02 -0.02 z M5.48 5.039999999999999 c-0.02 0.06 0.1 0.08 0.1 0.08 c0.04 -0.06 0.24 0.02 0.22 -0.08 l-0.32 0 z M6.74 5.08 l-0.04 0 c0 0.02 0 0.04 0.02 0.04 c0 0 0.02 -0.02 0.02 -0.04 z M4.36 5 l0 0.04 l0.08 0 l0 -0.04 l-0.08 0 z M4.74 4.960000000000001 c-0.06 0 -0.14 0.06 -0.16 0.08 l0.16 0 l0 -0.08 z M6.24 5 l0 0.04 l0.12 0 z M11.780000000000001 19.66 c0 -0.14 0.14 -0.16 0.2 -0.26 l1.2 0 c0.02 0 0.16 -0.08 0.2 -0.2 l0 -7.62 c0 -0.02 -0.04 -0.1 -0.04 -0.12 c0 -0.04 0.04 -0.1 0.04 -0.1 l0 -1.58 c-0.02 -0.02 -0.04 -0.1 -0.04 -0.1 l0 0 c0 -0.02 0.04 -0.18 0.04 -0.38 c0 -0.04 -0.04 -0.56 -0.04 -1.54 c0 -0.06 0 -0.14 0.04 -0.2 l0 -1 c-0.04 -0.04 -0.04 -0.06 -0.04 -0.12 c0 -0.12 0.04 -0.28 0.04 -0.42 c0 -0.04 -0.04 -0.16 -0.04 -0.2 l0.04 -0.1 c0 -0.08 0 -0.34 -0.18 -0.38 l-1.42 0 c-0.08 0 -0.24 -0.12 -0.24 -0.36 l-0.02 0.04 c0 -0.02 0.2 -0.42 0.26 -0.36 l3.04 0 c0 0.02 0.06 0.1 0.1 0.1 c0.18 0 0.2 -0.04 0.2 -0.06 c0 -0.04 -0.04 -0.08 -0.04 -0.08 l-0.12 0 l0.62 -0.02 c0.22 0.02 0.32 0.1 0.32 0.56 c0 0.36 -0.08 1.52 -0.08 1.8 c0 0.04 0.04 0.2 0.04 0.24 c0 0.46 -0.08 0.92 -0.08 1.56 c0 1.86 0.08 3.74 0.08 5.82 c0 0.14 0 0.14 -0.04 0.22 c0.02 0.02 0.02 0.14 0.08 0.16 c1.34 -1.12 1.68 -1.68 2.28 -2.12 c0 0.02 0.02 0.04 0.02 0.04 c0.04 0 0.04 -0.42 0.4 -0.42 c0.52 -0.6 0.54 -0.48 0.54 -0.72 c-0.06 0.14 0.14 -0.16 -0.38 -0.16 c-0.04 0 -0.16 0.08 -0.22 0.08 c-0.04 0 -0.1 -0.04 -0.14 -0.04 c-0.12 0 -0.68 0.02 -0.7 0.02 c-0.26 0 -0.3 -0.26 -0.3 -0.34 c0 -0.3 2.18 -0.32 3.36 -0.32 c0.74 0 1.52 0.04 1.52 0.26 c0 0.38 -0.4 0.44 -0.68 0.44 c-0.5 0 -0.48 0 -0.68 -0.1 c-0.3 0.08 -0.48 -0.1 -1.02 0.32 c-0.4 0.62 -0.68 0.54 -0.76 0.68 c0 0.1 -0.22 0.32 -0.22 0.32 s-0.02 -0.04 -0.06 -0.04 c-0.06 0 -0.18 0.08 -0.46 0.46 c0 0.04 -0.32 0.18 -0.38 0.32 l-0.08 0.06 c0 0.46 0.08 0.24 0.26 0.6 l-0.04 0 c0 0.04 0.46 0.26 0.46 0.46 c0.86 1.02 0.58 1 1.04 1.38 c0.02 0.1 0.24 0.2 0.34 0.36 c0.4 0.56 0.6 0.66 0.96 1.24 c1.36 1.36 0.92 1.6 1.82 1.6 c0.12 0 0.2 -0.02 0.3 -0.02 c0.22 0 0.3 0.14 0.3 0.18 c-0.04 0 -0.08 0 -0.1 -0.02 l-0.18 0.3 l0.02 0.04 c0.2 0 0.16 -0.26 0.3 -0.26 c0 0.36 -0.42 0.38 -0.54 0.38 c-0.06 0 -0.08 0 -0.14 -0.02 l-0.54 0 c-0.06 0.02 -0.08 0.04 -0.14 0.04 c-0.08 0 -0.14 -0.02 -0.16 -0.04 l-0.6 0 c-0.06 0.02 -0.08 0.04 -0.2 0.04 s-0.42 -0.06 -0.64 -0.06 c-0.2 0 -0.52 0.02 -0.8 0.02 c-0.04 0 -0.14 -0.02 -0.16 -0.02 c0 0.02 -0.02 0.02 -0.04 0.02 c-0.04 0 -0.12 -0.04 -0.24 -0.04 c-0.08 0 -0.18 0.02 -0.3 0.1 c-0.06 0 -0.32 -0.06 -0.44 -0.08 c-0.08 0.04 -0.16 0.04 -0.2 0.04 c-0.26 0 -0.34 -0.16 -0.38 -0.24 c0 -0.32 0.04 -0.14 0.28 -0.3 l0.62 0 c0.06 0 0.2 -0.08 0.2 -0.24 c0 -0.12 -0.16 -0.2 -0.16 -0.36 c-0.92 -0.92 -0.04 -0.3 -1.1 -1.36 c-0.34 -0.46 -0.02 0.16 -1.38 -1.78 c0 -0.06 -0.3 -0.12 -0.34 -0.22 c-0.18 0.18 -0.2 0.86 -0.2 1.38 c0 2.52 -0.18 2.6 0.96 2.6 c0.12 0 0.2 0 0.22 -0.04 c0.16 0 0.44 0 0.44 0.28 c0 0.1 -0.08 0.28 -0.3 0.28 l-0.66 0 c0 0.08 -0.06 0.08 -0.12 0.08 c-0.04 0 -0.96 -0.08 -1.7 -0.08 c-0.2 0 -1.04 0.04 -1.22 0.04 c-0.08 0.04 -0.14 0.04 -0.18 0.04 c-0.18 0 -0.2 -0.04 -0.3 -0.04 c-0.08 0 -0.18 0.04 -0.28 0.04 l-0.66 0 c-0.22 -0.16 -0.24 -0.12 -0.24 -0.36 z M12.500000000000002 19.82 l0 0.08 l0.06 0 l0 -0.02 c0 -0.04 -0.06 -0.06 -0.06 -0.06 z M12.840000000000002 19.82 c-0.02 0 -0.04 0.02 -0.04 0.04 s0.02 0.04 0.04 0.04 l0 -0.08 z M13.120000000000001 19.64 c0 0.1 -0.06 0.22 -0.16 0.22 c0 0.02 0.02 0.04 0.04 0.04 c0.06 0 0.14 -0.16 0.2 -0.16 c0 -0.12 -0.04 -0.1 -0.08 -0.1 z M12.22 19.76 c0 0.04 0.04 0.02 0.16 0.02 c-0.04 0 -0.1 -0.06 -0.14 -0.06 c0 0 -0.02 0.02 -0.02 0.04 z M17.3 19.6 c0 0.06 -0.08 0.12 -0.08 0.16 l0.02 0.02 l0.06 0 l0 -0.18 z M12.06 19.56 c-0.16 0 -0.16 0.16 -0.16 0.22 c0.02 0.02 0.04 0.02 0.06 0.02 c0.04 0 0.18 -0.12 0.18 -0.16 s-0.08 -0.08 -0.08 -0.08 z M23.12 19.5 c-0.02 0 -0.02 0.02 -0.02 0.02 c0 0.02 0 0.02 0.02 0.02 s0.02 0 0.02 -0.02 c0 0 0 -0.02 -0.02 -0.02 z M22 19.44 c-0.02 0 -0.02 0.02 -0.02 0.04 c0 0 0 0.02 0.02 0.02 s0.02 -0.02 0.02 -0.02 c0 -0.02 0 -0.04 -0.02 -0.04 z M22.060000000000002 19.44 c-0.02 0 -0.04 0.02 -0.04 0.02 c0 0.02 0.02 0.02 0.04 0.02 s0.02 0 0.02 -0.02 c0 0 0 -0.02 -0.02 -0.02 z M13.5 15.940000000000001 c-0.02 0 -0.04 0.02 -0.04 0.02 l0.04 0 l0.02 0 s0 -0.02 -0.02 -0.02 z M18.18 13.48 c0 0.02 -0.02 0.04 -0.02 0.04 c-0.02 0 -0.02 -0.02 -0.02 -0.04 s0 -0.02 0.02 -0.02 c0 0 0.02 0 0.02 0.02 z M13.5 13.280000000000001 c-0.02 0 -0.04 0.02 -0.04 0.04 s0.02 0.04 0.04 0.04 s0.02 -0.02 0.02 -0.04 s0 -0.04 -0.02 -0.04 z M19.78 11.82 c-0.02 0 -0.04 0 -0.04 0.02 c0 0 0.02 0.02 0.04 0.02 s0.02 -0.02 0.02 -0.02 c0 -0.02 0 -0.02 -0.02 -0.02 z M21.080000000000002 11.16 l0 0.1 c0.02 0 0.04 0 0.04 -0.02 z M20.840000000000003 11.2 c-0.02 0 -0.04 0.02 -0.04 0.04 c0 0 0.02 0.02 0.04 0.02 s0.02 -0.02 0.02 -0.02 c0 -0.02 0 -0.04 -0.02 -0.04 z M13.5 6.92 c-0.02 0 -0.04 0.02 -0.04 0.04 l0.04 0 l0.02 0 c0 -0.02 0 -0.04 -0.02 -0.04 z M14.88 5.34 l0.08 0.06 c0 -0.1 0.08 -0.12 0.08 -0.32 c0 -0.06 0 -0.08 -0.04 -0.1 c-0.02 0.02 -0.06 0.02 -0.08 0.06 z M15.700000000000001 5.359999999999999 l0 -0.06 l0 0.06 z M11.860000000000001 5.24 c0 -0.02 -0.02 -0.02 -0.02 -0.02 c-0.02 0 -0.02 0 -0.02 0.02 s0 0.04 0.02 0.04 c0 0 0.02 -0.02 0.02 -0.04 z M12.4 5.199999999999999 c-0.02 0 -0.02 0.02 -0.02 0.04 s0 0.04 0.02 0.04 s0.02 -0.02 0.02 -0.04 s0 -0.04 -0.02 -0.04 z M12.500000000000002 5.24 c0 -0.02 -0.02 -0.02 -0.02 -0.02 l0 0.06 s0.02 -0.02 0.02 -0.04 z M11.700000000000001 5 c-0.02 0 -0.04 0.02 -0.04 0.04 s0.02 0.04 0.04 0.04 s0.02 -0.02 0.02 -0.04 s0 -0.04 -0.02 -0.04 z M13.440000000000001 4.880000000000001 c-0.02 0 -0.04 0.02 -0.04 0.04 s0.02 0.04 0.04 0.04 c0 0 0.02 -0.02 0.02 -0.04 s-0.02 -0.04 -0.02 -0.04 z M11.9 4.82 c-0.16 0 -0.14 0 -0.14 0.1 l-0.02 0 l0.04 -0.04 c0.04 0 0.16 -0.02 0.2 0.04 c0 -0.1 -0.02 -0.1 -0.08 -0.1 z M14.06 4.92 c0 -0.02 -0.02 -0.02 -0.02 -0.02 c-0.02 0 -0.02 0 -0.02 0.02 s0 0.04 0.02 0.04 c0 0 0.02 -0.02 0.02 -0.04 z M15.240000000000002 4.82 c-0.02 0 -0.04 0.02 -0.04 0.06 c0 0.02 0.02 0.04 0.04 0.04 s0.02 -0.02 0.02 -0.04 c0 -0.04 0 -0.06 -0.02 -0.06 z M15.46 4.720000000000001 c0 0.18 0.02 0.14 0.1 0.22 l0.1 -0.1 c0 -0.1 -0.16 -0.06 -0.2 -0.12 z M12.600000000000001 4.84 l-0.08 0.04 l0.08 0 l0 -0.04 z M14.100000000000001 4.84 c0 0 -0.02 0.02 -0.02 0.04 s0.02 0.04 0.02 0.04 c0.02 0 0.02 -0.02 0.02 -0.04 s0 -0.04 -0.02 -0.04 z M14.8 4.82 c-0.02 0 -0.04 0 -0.04 0.02 l0.06 0 c0 -0.02 -0.02 -0.02 -0.02 -0.02 z M24.68 26.22 l0.1 -0.04 l-0.04 -0.04 c-0.02 0 -0.1 0.02 -0.12 0.04 c-0.34 0 -0.7 -0.78 -0.7 -0.78 l0 -0.62 c0.02 -0.14 0.02 -0.26 0.32 -0.56 c0.2 -0.38 0.72 -0.42 0.8 -0.44 c0.04 0 0.52 -0.04 0.56 0.06 c0.88 0.56 0.1 -0.02 0.88 0.78 c0.18 0 0.66 -0.46 0.66 -0.82 l0 0.02 c0.06 0 0.44 -1.14 0.6 -1.46 c-0.02 -0.02 -0.02 -0.04 -0.02 -0.06 c0 -0.16 0.2 -0.26 0.2 -0.48 c0.14 -0.62 0.3 -0.26 0.5 -1.1 c-0.02 -0.02 -0.02 -0.04 -0.02 -0.06 c0 -0.14 0.26 -0.4 0.26 -0.7 c0 -0.2 -0.22 -0.56 -0.32 -0.84 c0.02 0 0.02 -0.02 0.02 -0.04 c0 -0.06 -0.24 -0.16 -0.24 -0.36 c-0.28 -0.58 -0.28 -0.64 -0.4 -0.84 c0 -0.3 -0.44 -0.26 -0.44 -0.88 c-0.02 0 -0.02 0.02 -0.02 0.02 s0 -0.1 -0.32 -0.76 c0.02 0 0.02 -0.02 0.02 -0.02 c0 -0.1 -0.34 -0.28 -0.34 -0.6 c0 0 -0.32 -0.66 -0.32 -0.72 c0.02 0 -0.26 -0.36 -0.26 -0.42 l-0.1 -0.4 c-0.18 -0.14 -0.36 -0.48 -0.36 -0.6 c0 -0.16 0 -0.14 0.06 -0.18 c0 0 -0.52 -0.4 -0.52 -0.72 l0.02 -0.02 c0 -0.08 -0.28 -0.4 -0.28 -0.46 c0 -0.04 0.06 -0.36 -0.54 -0.36 c-0.16 0.04 -0.42 0.08 -0.56 0.08 c-0.34 0 -0.36 -0.24 -0.36 -0.36 c0 -0.02 0.02 -0.32 0.44 -0.32 l3.84 0 c0.06 -0.02 0.24 -0.04 0.28 -0.08 l0.58 0 c0.24 0 0.28 0.28 0.32 0.44 l-0.22 0.22 l-0.84 0 c-0.04 -0.04 -0.06 -0.04 -0.12 -0.04 c-0.12 0.2 -0.12 0.26 -0.12 0.26 c0 0.1 0.18 0.42 0.18 0.46 l-0.04 0 c0 0.04 0.46 0.48 0.46 0.82 c-0.02 0.02 -0.02 0.02 -0.02 0.04 c0 0.14 0.32 0.32 0.32 0.64 c0 0.04 0.34 0.3 0.8 1.72 c0 0.06 0.32 0.98 0.64 0.98 c0.28 -0.28 0 0.14 0.48 -0.92 c-0.02 -0.02 -0.02 -0.02 -0.02 -0.04 c0 -0.18 0.32 -0.54 0.34 -0.96 l-0.02 -0.02 c0 -0.12 0.38 -0.46 0.38 -0.96 c-0.02 -0.02 -0.02 -0.04 -0.02 -0.06 c0 -0.1 0.24 -0.18 0.24 -0.48 c-0.02 -0.02 -0.02 -0.04 -0.02 -0.06 c0 -0.22 0.46 -0.68 0.46 -1.12 c0 -0.46 -0.38 -0.26 -0.44 -0.4 c-0.08 0.04 -0.14 0.1 -0.22 0.1 l0.06 0.04 l-0.42 0 c0.02 0.04 -0.04 -0.14 -0.04 -0.18 l-0.28 0 c-0.06 0.02 -0.02 0.08 -0.06 0.1 c-0.18 0 -0.2 -0.18 -0.2 -0.22 c0 -0.36 0.34 -0.4 0.66 -0.4 l0.02 -0.04 c0 0.02 0.22 0.02 0.22 0.04 l2.84 -0.02 l0.02 0.02 l0 0 c0 0.04 0.34 0.06 0.34 0.34 c-0.1 0.32 -0.14 0.38 -0.34 0.38 c-0.48 0 -0.68 -0.1 -0.92 -0.12 l0.06 -0.04 l-0.04 -0.04 l-0.04 0.04 c-0.04 0 -0.08 -0.02 -0.12 -0.04 c0.02 0 0.04 0 0.04 0.02 c0 0.06 -0.54 0.36 -0.54 0.78 c0 0.04 0.02 0.06 0.02 0.08 l0 -0.02 c-0.06 0 -0.34 0.76 -0.34 0.82 c-0.02 0.04 -0.04 0.18 -0.04 0.24 c-0.18 0 -0.82 2.02 -0.84 2.08 c0 0.06 -0.2 0.74 -0.34 0.86 l0.02 0.02 c0 0.1 -0.26 0.34 -0.26 0.56 c0 0.06 -0.26 0.62 -0.26 0.72 c0 0 -0.24 0.42 -0.24 0.62 c0 0 0.02 0.02 0.02 0.04 c0 0.12 -0.34 0.5 -0.34 0.78 c0 0.46 -0.32 0.7 -0.46 1.18 c-0.2 0.64 -0.4 0.7 -0.4 0.98 c0 0.06 -0.4 1.16 -0.44 1.18 l-0.02 -0.02 c-0.04 0 -0.02 0.6 -0.28 0.88 c0.02 0 0.02 0 0.02 0.02 c0 0.06 -0.3 0.36 -0.3 0.64 c-0.1 0 -0.42 0.92 -0.42 0.88 c0 0.02 0.02 0.04 0.02 0.04 c0 0.06 -0.22 0.16 -0.22 0.26 c-0.46 0.76 -0.52 0.48 -0.7 0.8 c-0.4 0 -0.34 0.38 -1.22 0.38 c-0.2 0 -0.62 -0.06 -0.62 -0.16 z M25.04 26.22 c-0.02 0 -0.04 0.02 -0.04 0.04 s0.02 0.04 0.04 0.04 l0 -0.08 z M24.86 26.14 c-0.02 0 -0.04 0.02 -0.04 0.04 s0.02 0.04 0.04 0.04 l0 -0.08 z M25.68 26.14 c-0.02 0 -0.04 0.02 -0.04 0.04 s0.02 0.04 0.04 0.04 s0.02 -0.02 0.02 -0.04 s0 -0.04 -0.02 -0.04 z M26.32 25.86 c-0.12 0 -0.1 0.08 -0.1 0.16 c0.1 0 0.1 -0.08 0.1 -0.16 z M24.3 25.8 c-0.02 0 -0.04 0.02 -0.04 0.04 c0 0 0.02 0.02 0.04 0.02 s0.02 -0.02 0.02 -0.02 c0 -0.02 0 -0.04 -0.02 -0.04 z M25.400000000000002 25.58 c0.08 0.02 0.02 0.06 0.18 0.06 c0 0 0.02 -0.02 0.02 -0.1 c-0.02 -0.58 -0.74 -0.82 -0.74 -0.92 c-0.26 0.08 -0.3 0.22 -0.3 0.32 c0 0.34 0.4 0.68 0.62 0.68 c0.02 0 0.02 0 0.04 -0.02 c0 0.02 0.02 0.02 0.02 0.02 c0.06 0 0.12 -0.04 0.16 -0.04 z M24.080000000000002 25.44 c-0.02 0 -0.04 0.02 -0.04 0.02 c0 0.02 0.02 0.02 0.04 0.02 c0 0 0.02 0 0.02 -0.02 z M24.14 24.64 c0 0.1 0.08 0.04 0.1 0.06 c0 -0.02 -0.04 -0.04 -0.08 -0.08 z M24.36 24.34 c-0.08 0.04 -0.14 0.12 -0.2 0.18 c0.08 -0.02 0.16 -0.06 0.22 -0.1 z M27.32 24.48 l0.06 0.04 c0.06 -0.06 0.02 -0.06 0.04 -0.06 c-0.04 0 -0.08 0 -0.1 0.02 z M24.740000000000002 24.14 c0 0.04 -0.02 0.12 0.04 0.12 l0 -0.12 l-0.04 0 z M27.96 22.9 c0 0.06 0.02 0.12 0.04 0.18 c0.06 -0.02 0.08 -0.06 0.1 -0.12 c0 0 0 -0.18 -0.04 -0.18 c-0.06 0 -0.1 0.08 -0.1 0.12 z M27.76 22.88 c-0.02 0 -0.02 0.02 -0.02 0.04 s0 0.04 0.02 0.04 s0.02 -0.02 0.02 -0.04 s0 -0.04 -0.02 -0.04 z M28.22 22.54 c-0.02 0 -0.02 0.02 -0.02 0.04 s0 0.04 0.02 0.04 s0.02 -0.02 0.02 -0.04 s0 -0.04 -0.02 -0.04 z M28.12 22.46 c-0.02 0 -0.02 0.02 -0.02 0.04 c0 0 0 0.02 0.02 0.02 s0.02 -0.02 0.02 -0.02 c0 -0.02 0 -0.04 -0.02 -0.04 z M28.62 21.4 c-0.02 0 -0.04 0.02 -0.04 0.04 c0 0 0.02 0.02 0.04 0.02 s0.02 -0.02 0.02 -0.02 c0 -0.02 0 -0.04 -0.02 -0.04 z M28.66 21.36 l0 0.04 l0.04 -0.04 l-0.04 0 z M29.12 20.26 c-0.02 0 -0.02 0.02 -0.02 0.04 s0 0.04 0.02 0.04 s0.02 -0.02 0.02 -0.04 s0 -0.04 -0.02 -0.04 z M29.22 19.82 l0 0.02 l0.06 0 c-0.02 -0.02 -0.02 -0.02 -0.04 -0.02 l-0.02 0 l0 0 z M28.46 19.08 l0 0.04 l0.02 0 z M28.42 18.94 l0.06 0.06 l0.02 -0.02 c-0.02 -0.04 -0.04 -0.04 -0.08 -0.04 z M28.34 18.82 c-0.02 0 -0.02 0.02 -0.02 0.04 c0 0 0 0.02 0.02 0.02 s0.02 -0.02 0.02 -0.02 c0 -0.02 0 -0.04 -0.02 -0.04 z M28.28 18.76 l0.04 0.06 l0.02 -0.04 c-0.02 -0.02 -0.02 -0.02 -0.04 -0.02 l-0.02 0 l0 0 z M28.04 18.22 l-0.04 0 l0.04 0 z M28.04 18.04 c-0.02 0 -0.04 0.02 -0.04 0.04 c0 0 0.02 0.02 0.04 0.02 l0.02 -0.02 c0 -0.02 -0.02 -0.04 -0.02 -0.04 z M28 18.02 c-0.02 0 -0.04 0.02 -0.04 0.02 s0.02 0.02 0.04 0.02 s0.02 -0.02 0.02 -0.02 s0 -0.02 -0.02 -0.02 z M27.380000000000003 17 l0 0.04 l0.04 0 l0 -0.04 l-0.04 0 z M26.46 14.86 l0 0.02 l0.02 0 z M26.04 14.1 c-0.02 0 -0.04 0.02 -0.04 0.04 s0.02 0.04 0.04 0.04 c0 0 0.02 -0.02 0.02 -0.04 s-0.02 -0.04 -0.02 -0.04 z M31.240000000000002 13.82 l0 0.08 l0.04 0 c0 -0.04 -0.02 -0.06 -0.04 -0.08 z M31.560000000000002 13.82 l0.04 0.04 c0.06 -0.06 0.02 -0.06 0.04 -0.06 c-0.04 0 -0.06 0 -0.08 0.02 z M25.8 13.5 c-0.04 0 -0.04 0 -0.04 0.04 l0.04 0 l0 -0.04 z M31.86 13.16 c-0.06 0.02 -0.12 0.04 -0.14 0.08 c0.14 0 0.14 -0.02 0.14 -0.08 z M31.92 13.02 l0 0.02 l0.04 -0.02 l-0.04 0 z M32 12.879999999999999 c-0.06 0 -0.08 0.04 -0.08 0.06 s0 0.02 0.02 0.02 c0.04 0 0.06 -0.04 0.06 -0.08 z M25.36 12.74 c-0.02 0 -0.04 0.02 -0.04 0.04 c0 0 0.02 0.02 0.04 0.02 s0.02 -0.02 0.02 -0.02 c0 -0.02 0 -0.04 -0.02 -0.04 z M25.36 12.6 c-0.02 0 -0.04 0.04 -0.04 0.04 c0 0.04 0.02 0.06 0.04 0.06 s0.02 -0.02 0.02 -0.06 c0 0 0 -0.04 -0.02 -0.04 z M27.060000000000002 12.54 l0.04 0.04 l0 -0.04 l-0.04 0 z M31.840000000000003 12.379999999999999 c-0.02 0 -0.04 0.02 -0.04 0.04 c0 0 0.02 0.02 0.04 0.02 l0.02 -0.02 c0 -0.02 -0.02 -0.04 -0.02 -0.04 z M25.26 12.3 l0.04 0.04 l0 -0.04 l-0.04 0 z M24.380000000000003 11.6 c-0.06 0.02 -0.1 0.04 -0.12 0.1 c0.12 0 0.12 -0.02 0.12 -0.1 z M23.62 11.6 c-0.02 0 -0.02 0.02 -0.02 0.02 c0 0.02 0 0.02 0.02 0.02 c0 0 0.02 0 0.02 -0.02 z M27.6 11.6 c-0.02 0 -0.02 0.02 -0.02 0.04 c0 0 0 0.02 0.02 0.02 s0.02 -0.02 0.02 -0.02 c0 -0.02 0 -0.04 -0.02 -0.04 z M30.8 11.54 c0 0.08 0.08 0.1 0.16 0.1 l0 -0.08 c-0.02 0 -0.12 -0.02 -0.14 -0.02 l-0.02 0 z M31.48 11.56 c0.02 0.04 0.02 0.06 0.04 0.06 l0.02 -0.02 l0 -0.04 l-0.06 0 z M31.86 11.54 c-0.02 0 -0.02 0.02 -0.02 0.02 c0 0.02 0 0.04 0.02 0.04 s0.02 -0.02 0.02 -0.04 c0 0 0 -0.02 -0.02 -0.02 z M24.580000000000002 11.48 l0.1 0.06 l0.02 0 c-0.02 -0.06 -0.12 -0.06 -0.12 -0.06 z M24.94 11.52 l0.04 0.02 c0.04 0 0.06 0 0.08 -0.02 l-0.08 -0.08 z M24.82 11.48 l0 0.04 l0.02 0.02 c0.02 0 0.02 -0.02 0.02 -0.06 l-0.04 0 z M25.32 11.48 l0 0.04 l0.04 0 l0 -0.04 l-0.04 0 z M28.34 11.48 l0 0.04 c0.02 0 0.02 0.02 0.04 0.02 s0.02 -0.02 0.04 -0.02 z M28.54 11.28 c0 0 0.04 0.24 0.1 0.24 c0 0 0.06 -0.04 0.06 -0.14 c0 -0.08 -0.04 -0.1 -0.16 -0.1 z M23.92 11.38 c0 0.06 0.04 0.1 0.04 0.1 l0.08 -0.04 c0 -0.06 -0.02 -0.1 -0.04 -0.12 c-0.04 0 -0.04 0.02 -0.08 0.06 z M23.68 11.32 c-0.08 0 -0.1 0.04 -0.1 0.08 c0 0.02 0.02 0.06 0.02 0.08 c0.12 -0.02 0.12 -0.1 0.12 -0.16 l-0.04 0 z M24.5 11.4 l-0.04 0.04 l0.04 0 l0 -0.04 z M27.68 11.4 l0.04 0.04 c0.02 -0.02 0.02 -0.08 0.02 -0.12 c-0.04 0 -0.06 0.04 -0.06 0.08 z M33.92 11.24 c0.04 0.14 0.04 0.16 0.16 0.16 c-0.06 -0.1 -0.04 -0.16 -0.16 -0.16 z M31.32 11.28 l0.02 0.04 c0.04 0 0.1 -0.04 0.1 -0.04 l-0.04 -0.04 c-0.06 0 -0.06 0 -0.08 0.04 z M31.700000000000003 11.28 c0 0 -0.02 0.02 -0.02 0.04 s0.02 0.04 0.02 0.04 s0.02 -0.02 0.02 -0.04 s-0.02 -0.04 -0.02 -0.04 z M30.48 11.24 l0 0.04 c0.06 0 0.12 0.02 0.14 -0.04 l-0.14 0 z M32.58 11.24 l-0.04 0.04 l0.04 0 l0 -0.04 z M32.86 11.24 l0 0.04 l0.04 0 z M33.08 11.24 l0.04 0.04 c-0.02 -0.02 0.02 0.04 0.06 -0.04 l-0.04 -0.04 z M33.34 11.24 c0 0.06 0.1 0.04 0.14 0.04 l0 -0.04 l-0.14 0 z M33.32 11.02 l0 0.06 c-0.02 0 -0.04 -0.02 -0.04 -0.02 c0 -0.02 0.02 -0.04 0.04 -0.04 z M46.760000000000005 20.22 c-0.04 -0.04 -0.16 -0.12 -0.2 -0.16 c0.04 0 -0.46 -0.46 -0.46 -0.68 c0 -0.08 -0.44 -0.52 -0.44 -0.72 c0 -0.18 -0.58 -0.46 -0.58 -0.86 c-0.28 -0.6 -0.48 -0.6 -0.52 -0.8 c0.02 0 0.04 0 0.04 -0.02 s-0.48 -0.36 -0.38 -0.56 c0 0 -0.02 0.02 -0.04 0.02 c-0.04 0 -0.14 -0.08 -0.44 -0.7 c0 -0.12 -0.42 -0.3 -0.5 -0.72 c-0.38 -0.26 -0.04 -0.42 -0.84 -1.22 c-0.26 -0.2 0.2 0.18 -0.7 -1.08 c0 -0.04 0 -0.06 0.04 -0.1 c0 -0.04 -0.04 -0.04 -0.14 -0.04 l0 -0.02 c0 -0.1 -0.3 -0.24 -0.3 -0.42 c0 -0.08 -0.18 -0.46 -0.5 -0.78 c-0.02 0.02 -0.02 0.04 -0.02 0.04 l0 0 s0.02 -0.02 0.02 -0.04 c0 -0.08 -0.08 -0.28 -0.52 -0.76 c0 -0.26 -0.38 -0.34 -0.48 -0.76 c0 -0.08 -0.6 -0.58 -0.62 -0.92 l0 -0.02 c0 -0.12 -0.34 -0.32 -0.5 -0.72 c0 -0.26 -0.42 -0.38 -0.42 -0.72 c-0.1 0 -0.16 -0.36 -0.68 -0.9 c-0.1 0.02 -0.26 0.1 -0.26 0.18 l0 0.76 c0 0.04 0.02 0.1 0.02 0.14 c0 0.02 -0.02 0.64 -0.02 0.72 c0 0.68 0.02 0.84 0.02 1.04 c0 1.06 -0.02 1.32 -0.02 1.66 c0 0.68 0.06 1.26 0.06 1.98 c0 0.02 -0.04 0.08 -0.04 0.36 l0 5.82 c0.06 0.06 0.16 0.2 0.24 0.2 l1.42 0 c0.2 0 0.46 0.12 0.46 0.4 c0 0.18 -0.14 0.22 -0.3 0.22 l-1.34 0 l-0.24 -0.08 l0.08 0 l-0.12 -0.12 l0 0.16 c-0.14 0.02 -1.32 0.06 -1.32 0.06 c-0.02 0 -0.06 0 -0.1 -0.02 c0.04 -0.02 0.08 -0.04 0.1 -0.08 c-0.16 0 -0.16 0.02 -0.22 0.08 l-0.38 0 l-0.04 -0.04 l0.04 -0.04 l-0.04 -0.04 c-0.04 0.02 -0.2 0.04 -0.2 0.08 l0.04 0.04 c-0.14 0.04 -0.22 0.02 -0.4 0.02 s-0.44 -0.02 -0.44 -0.26 c0 -0.44 0.74 -0.46 1.28 -0.46 l0.08 0.04 l0.5 0 l0.02 0 c0.18 0 0.18 -0.84 0.18 -1.22 c0 -3.14 -0.08 -3.88 -0.08 -10.28 c0.08 -0.24 0.08 -1.12 0.08 -1.58 c0 -0.44 -0.06 -0.74 -0.64 -0.74 c-0.66 0.04 -0.48 0.16 -0.86 0.16 c-0.28 0 -0.64 -0.1 -0.64 -0.44 c0 -0.22 0.38 -0.52 0.6 -0.52 c0.58 0 -0.06 0.2 1.56 0.2 c0.18 0 0.36 -0.06 0.46 -0.06 c0.3 0 0.6 0.06 0.88 0.06 c0.16 0 0.3 -0.02 0.38 -0.06 c0.06 0.04 0.24 0.04 0.3 0.04 l1.02 0 c0.48 0 0.94 0.98 0.96 0.98 c0.06 0 0.68 1.04 0.68 1.14 c0 0 1.62 2.42 2.06 3.08 l0 0.02 c0 0.04 0.3 0.22 0.3 0.44 l-0.02 0 l-0.02 0 c0 0.06 0.42 0.38 0.42 0.54 c0.56 0.74 0.26 0.68 0.84 1.26 l0.28 0.58 c0.02 0.06 0.46 0.46 0.46 0.68 c0.24 0.02 0.36 0.9 0.7 0.92 c0.08 0 0.2 0 0.2 -0.1 l0 -1.6 c0 -0.02 0.04 -0.14 0.04 -0.16 c0 -0.22 -0.04 -0.34 -0.04 -0.52 c0 -0.64 -0.04 -4.06 -0.04 -6.24 c-0.04 -0.18 -0.12 -0.32 -0.22 -0.4 c-0.7 0 -0.72 0.04 -0.92 0.04 c-0.66 0 -0.82 0.04 -0.82 -0.42 c0 -0.24 0.28 -0.28 0.72 -0.28 c0.34 0 0.88 0.02 1.56 0.08 c0.06 0 0.24 -0.04 0.3 -0.04 c0.08 0 0.24 0.04 0.36 0.04 c0.48 -0.04 0.94 -0.08 1.28 -0.08 c0.02 0.04 0.38 0.12 0.42 0.24 l0 0.34 c-0.02 0.08 -0.36 0.12 -0.46 0.12 c-0.22 0 -0.5 -0.04 -0.72 -0.04 c-0.66 0.16 -0.78 -0.18 -0.78 0.56 l0 2.98 c0 0.2 0.02 0.28 0.02 0.62 c0 0.42 0 2.9 -0.06 3 c0 -0.04 0.04 1.98 0.04 2.26 c0 0.8 -0.04 0.72 -0.04 0.86 c0 0.1 0.06 0.44 0.06 0.56 l0 -0.06 c0 0 -0.06 0.26 -0.06 1.5 c0 0.78 0.06 1.62 0.06 1.96 c0 0.14 -0.04 0.22 -0.28 0.48 c0 0.02 0 0.04 -0.02 0.04 s-0.06 -0.1 -0.2 -0.1 z M46.760000000000005 20.04 l0 0.02 l0.06 0 z M34.900000000000006 19.96 c0.02 0.02 0.02 0.04 0.06 0.04 c-0.02 -0.04 -0.06 -0.04 -0.06 -0.04 z M35.2 19.96 c-0.04 0 -0.06 0.02 -0.08 0.04 l0.04 0 s0.04 0 0.06 -0.04 l-0.02 0 z M35.7 19.96 l0.04 0.04 c0.04 0 0.2 -0.12 0.2 -0.32 l-0.12 0 c0 0.12 0.02 0.2 -0.12 0.28 z M36.440000000000005 19.96 c0 -0.02 -0.02 -0.02 -0.04 -0.02 c0 0 -0.02 0 -0.02 0.02 s0.02 0.04 0.02 0.04 c0.02 0 0.04 -0.02 0.04 -0.04 z M38.18000000000001 19.92 c0 0 -0.02 0.02 -0.02 0.04 s0.02 0.04 0.02 0.04 c0.02 0 0.02 -0.02 0.02 -0.04 s0 -0.04 -0.02 -0.04 z M38.440000000000005 19.92 l0 0.04 l0.04 0 l0 -0.04 l-0.04 0 z M39.220000000000006 19.92 c-0.02 0 -0.04 0.02 -0.04 0.04 s0.02 0.04 0.04 0.04 s0.02 -0.02 0.02 -0.04 s0 -0.04 -0.02 -0.04 z M35.980000000000004 19.9 c-0.02 0 -0.04 0 -0.04 0.02 l0.06 0 c0 -0.02 -0.02 -0.02 -0.02 -0.02 z M38.84 19.88 c-0.04 0 -0.06 0 -0.08 0.02 z M34.760000000000005 19.76 l0 0.04 l0 -0.06 l0 0.02 z M34.760000000000005 19.68 c0.04 0.02 0.1 0.02 0.14 0.08 c0.04 0 0.12 -0.06 0.14 -0.12 l-0.28 0 l0 0.04 z M39.28 19.64 l0 0.1 l0.04 0 c0 -0.04 0 -0.08 -0.04 -0.1 z M39.160000000000004 19.58 c-0.04 0 -0.12 0.02 -0.12 0.08 c0 0.02 0.02 0.02 0.02 0.04 c0.06 0 0.1 -0.04 0.1 -0.12 z M36.900000000000006 19.34 c0 0.04 0.02 0.08 0.06 0.08 s0.14 -0.04 0.14 -0.04 l0 -0.04 l-0.2 0 z M37.160000000000004 19.06 l0 0.12 l0.02 0 c0 -0.02 0 -0.06 -0.02 -0.12 z M36.96000000000001 18.2 c-0.06 0 -0.06 0.06 -0.06 0.06 l0.06 -0.06 l0 0 z M36.900000000000006 17.14 c-0.02 0 -0.02 0.02 -0.02 0.04 l0.04 0 c0 -0.02 0 -0.04 -0.02 -0.04 z M37.10000000000001 16.84 l0 0.02 l0.02 0 z M44.52 16.86 l-0.02 0 l0.02 0 z M36.96000000000001 16.16 l0.08 0.08 c0 -0.02 0.02 -0.04 0.02 -0.06 s-0.04 -0.06 -0.1 -0.08 c-0.1 0 -0.12 0 -0.16 0.02 c0 0.06 0.02 0.06 0.04 0.08 c0.04 -0.02 0.08 -0.04 0.12 -0.04 z M37.120000000000005 15.68 l0.04 0.04 c0.02 -0.02 0.02 -0.04 0.02 -0.08 c0 0 -0.04 0.02 -0.06 0.04 z M36.84 15.18 c-0.02 0 -0.04 0.02 -0.04 0.02 s0.02 0.02 0.04 0.02 s0.02 -0.02 0.02 -0.02 s0 -0.02 -0.02 -0.02 z M36.800000000000004 13.18 c-0.02 0 -0.04 0.02 -0.04 0.04 l0.04 0 l0.02 0 c0 -0.02 0 -0.04 -0.02 -0.04 z M36.800000000000004 13.02 l0 0.08 c0 0.02 0.02 0.02 0.02 0.02 c0.04 0 0.06 -0.1 0.06 -0.1 l-0.08 0 z M36.800000000000004 12.46 c-0.02 0 -0.04 0.02 -0.04 0.02 c0 0.02 0.02 0.02 0.04 0.02 s0.02 0 0.02 -0.02 c0 0 0 -0.02 -0.02 -0.02 z M36.800000000000004 9.3 c-0.02 0 -0.04 0.02 -0.04 0.04 s0.02 0.04 0.04 0.04 s0.02 -0.02 0.02 -0.04 s0 -0.04 -0.02 -0.04 z M36.760000000000005 9.22 c-0.02 0 -0.02 0.02 -0.02 0.04 l0.04 0 c0 -0.02 0 -0.04 -0.02 -0.04 z M47.36000000000001 5.48 c0 0 -0.02 0 -0.02 0.02 s0.02 0.04 0.02 0.04 c0.02 0 0.02 -0.02 0.02 -0.04 s0 -0.02 -0.02 -0.02 z M47.82000000000001 5.42 c0 0.06 0.06 0.06 0.08 0.06 l0.08 -0.26 c0.1 0 0.18 0.08 0.3 0.08 c0.02 0 0.04 0 0.04 -0.08 c0 -0.1 -0.16 -0.1 -0.28 -0.1 l0.02 0 s-0.26 0.12 -0.26 0.26 c0 0 0 0.02 0.02 0.04 z M48.84 5.1 l-0.02 -0.02 c0 0.04 0.12 0.32 0.12 0.4 c0.02 0 0.1 0 0.1 -0.24 c0 -0.16 -0.18 -0.12 -0.2 -0.14 z M47.580000000000005 5.42 c-0.02 0 -0.02 0.02 -0.02 0.04 c0 0 0 0.02 0.02 0.02 s0.02 -0.02 0.02 -0.02 c0 -0.02 0 -0.04 -0.02 -0.04 z M47.56 5.380000000000001 c-0.02 0 -0.02 0.02 -0.02 0.02 c0 0.02 0 0.02 0.02 0.02 c0 0 0.02 0 0.02 -0.02 z M35.900000000000006 5.279999999999999 c-0.02 0 -0.02 0.02 -0.02 0.02 c0 0.02 0.06 0.06 0.1 0.08 l0 -0.1 l-0.08 0 z M37.06 5.279999999999999 c0.02 0.02 0.04 0.08 0.04 0.08 c0.02 0 0.02 0 0.02 -0.02 l0 -0.12 l0 0 l-0.02 0 c0 0 -0.02 0.02 -0.04 0.06 z M34.760000000000005 5.18 l0 0.08 c0.04 -0.04 0.08 -0.06 0.08 -0.12 c0 -0.02 -0.04 -0.02 -0.06 -0.02 s-0.02 0.02 -0.02 0.02 l0 0.04 z M36.56 5.18 c0 0.04 0 0.06 0.04 0.08 c0.02 -0.02 0.04 -0.04 0.04 -0.08 l-0.08 0 z M46.34 5.18 l0 0.08 l0.02 0 z M46.84 5.140000000000001 l0 0.12 c0.06 0 0.08 -0.08 0.08 -0.12 l-0.08 0 z M47.00000000000001 5.140000000000001 c0 0.08 0.02 0.12 0.06 0.12 c0.02 0 0.02 0 0.02 -0.02 c0 -0.06 -0.04 -0.1 -0.06 -0.1 l-0.02 0 z M44.980000000000004 5.119999999999999 l-0.02 0.02 s0.08 0.08 0.14 0.08 c0 0 0.02 0 0.1 -0.08 c0 -0.02 -0.16 -0.02 -0.22 -0.02 z M48.52 5.140000000000001 c-0.06 0 -0.06 0.04 -0.06 0.1 c0.02 0 0.06 -0.06 0.1 -0.1 l-0.04 0 z M35.50000000000001 5.140000000000001 c0.02 0.04 0.02 0.06 0.04 0.06 s0.02 -0.02 0.04 -0.02 l0 -0.04 l-0.08 0 z M44.82000000000001 5.119999999999999 l0 0.02 l0.02 0 z M53.52 20.12 l0 -0.04 c-0.26 0 -0.48 -0.12 -0.66 -0.12 c-0.78 -0.34 -0.62 -0.22 -0.94 -0.4 c-0.02 0.02 -0.02 0.02 -0.04 0.02 c-0.12 0 -0.42 -0.4 -0.52 -0.4 c-0.24 0 -0.62 -0.56 -0.78 -0.76 c0 -0.12 -0.42 -0.44 -0.42 -0.62 c0.02 0 0.02 -0.02 0.02 -0.04 c0 -0.08 -0.22 -0.18 -0.22 -0.26 c0 -0.56 -0.24 -0.92 -0.24 -1.34 c0 -0.82 -0.02 -1.28 0.12 -1.72 c-0.02 0 -0.04 -0.02 -0.04 -0.04 c0 -0.12 0.28 -0.4 0.28 -0.64 c0 -0.02 -0.02 -0.04 -0.02 -0.06 c0 -0.12 0.36 -0.4 0.36 -0.64 c0.38 -0.38 0.04 -0.22 0.72 -0.88 c0 0.02 0.02 0.02 0.02 0.02 c0.1 0 0.08 -0.5 0.46 -0.5 c0.14 -0.38 0.4 -0.24 0.58 -0.42 c0 0.02 -0.02 0.02 -0.02 0.02 s0.16 -0.32 0.72 -0.32 c0.1 0 0.9 -0.32 1.36 -0.32 c0.24 0 0.88 0.12 1.12 0.12 l0 0.04 c0.04 0 0.34 0.16 0.5 0.16 c0.02 0 0.02 -0.02 0.04 -0.02 c0.12 0 0.32 0.28 0.56 0.28 c-0.02 0 -0.02 0 -0.02 0.02 s0.34 0.12 0.44 0.2 c0.12 0 0.3 0.38 0.52 0.38 l-0.02 -0.02 c0.44 0.58 0.98 1.44 0.98 1.9 l0 0.68 c-0.18 0.12 -0.28 0.42 -0.5 0.42 c0 -0.02 -0.02 -0.04 -0.02 -0.04 c-0.04 0 -0.1 0.08 -0.28 0.08 c-0.12 0 -0.32 -0.04 -0.6 -0.2 c-0.06 0 0 0.04 -0.5 0.04 l0 -0.04 l-0.36 0 l-0.08 0.04 c-0.44 0 -0.78 -0.1 -1.26 -0.1 c0 0 -0.34 0.02 -0.46 0.02 c-0.04 0 -0.2 -0.06 -0.24 -0.06 c-0.06 0 -0.24 0.04 -0.32 0.06 l-1.08 0 l-0.06 0.04 c-0.02 0 -0.02 -0.02 -0.02 -0.02 c-0.1 0 -0.2 0.66 -0.22 0.66 s-0.02 0.02 -0.02 0.02 c0 0.02 0.06 0.06 0.06 0.24 l0 1.18 l0 0 s-0.02 0.18 -0.02 0.46 c0 0.52 0.06 1.34 0.34 1.54 c0 -0.02 0 -0.04 0.02 -0.04 s0 0.82 1.2 0.82 c1.58 0 1.68 -0.26 1.92 -0.26 l-0.04 0 c0 -0.02 0.78 -0.02 1.38 -1.06 c0 0 0.42 -0.42 0.42 -0.68 c0 -0.5 0.38 -0.66 0.4 -0.7 c0.44 0 0.26 0.12 0.36 0.2 c0 0.18 -0.02 0.16 -0.06 0.18 c-0.18 0 -0.16 -0.26 -0.22 -0.26 c-0.1 0 -0.12 0.08 -0.12 0.12 c0 0.16 0.18 0.16 0.18 0.28 l0.06 -0.04 c0.06 0 0.1 0 0.1 0.08 c0 0.22 -0.32 1.04 -0.58 1.04 c-0.04 0 -0.14 -0.06 -0.2 -0.06 l0 0.3 l0.04 0.02 l0 -0.02 c-0.04 0 -0.2 0.54 -0.48 0.54 c0 0.06 -0.38 0.44 -0.58 0.44 c0 0 0 -0.04 -0.02 -0.04 c-0.04 0 -0.3 0.36 -0.72 0.36 c0 0.08 -1.16 0.2 -2.1 0.2 z M54.38 19.96 c0.02 0 0.1 0.14 0.16 0.14 c0.02 0 0.04 -0.02 0.08 -0.14 c0 -0.04 -0.2 -0.04 -0.18 -0.04 c-0.04 0 -0.04 0 -0.06 0.04 z M53.42 19.92 c0.02 0.06 0 0.1 0.12 0.1 c0 0 0.02 -0.02 0.04 -0.06 c-0.02 -0.04 -0.14 -0.02 -0.16 -0.04 z M54.78 19.96 c-0.02 0 -0.04 0.02 -0.04 0.04 s0.02 0.04 0.04 0.04 l0 -0.08 z M54.82 19.88 l0.04 0.04 l0.04 -0.04 l-0.08 0 z M56.36 19.48 c-0.12 0 -0.32 0.24 -0.32 0.32 c0.14 0 0.32 0.04 0.32 -0.32 z M50.46 17.92 l-0.04 0.02 l0.06 0 z M57.7 17.92 c0 -0.02 -0.02 -0.02 -0.02 -0.02 c-0.02 0 -0.02 0 -0.02 0.02 s0 0.02 0.02 0.02 c0 0 0.02 0 0.02 -0.02 z M57.72 17.84 c0 -0.02 0 -0.02 -0.02 -0.02 l0 0.06 c0.02 0 0.02 -0.02 0.02 -0.04 z M58.04 17.58 c-0.02 0 -0.02 0.02 -0.02 0.04 c0 0 0 0.02 0.02 0.02 s0.02 -0.02 0.02 -0.02 c0 -0.02 0 -0.04 -0.02 -0.04 z M54.86 14.5 c0 -0.02 -0.02 -0.02 -0.02 -0.02 c-0.02 0 -0.02 0 -0.02 0.02 s0 0.02 0.02 0.02 c0 0 0.02 0 0.02 -0.02 z M54.08 14.440000000000001 l0 0.02 l0.04 0 z M52.42 13.620000000000001 c0 0.08 0.1 0.38 0.16 0.38 l0.1 0.04 l2.8 0 c0.18 0 0.38 -0.18 0.38 -0.48 c0 -0.1 -0.04 -0.26 -0.04 -0.36 c0 -0.06 0.04 -0.18 0.04 -0.3 c0 -0.2 -0.06 -0.4 -0.06 -0.56 c0 0.02 -0.08 -0.46 -0.48 -0.8 c0 0.02 0 0.02 -0.02 0.02 c-0.04 0 -0.34 -0.32 -0.78 -0.32 c-1.32 0 -1 0.02 -1.82 0.58 c-0.04 0.68 -0.28 -0.32 -0.28 1.8 z M52.480000000000004 11.7 l-0.04 0.02 l0.08 0 z M54.7 10.98 c0 0.02 -0.02 0.02 -0.02 0.04 s0.06 0.04 0.1 0.04 c0.02 0 0.02 0 0.04 -0.04 c-0.04 -0.02 -0.08 -0.04 -0.1 -0.04 l-0.02 0 z M53.6 11.02 c0 -0.02 -0.02 -0.02 -0.04 -0.02 c0 0 -0.02 0 -0.02 0.02 s0.02 0.04 0.02 0.04 c0.02 0 0.04 -0.02 0.04 -0.04 z M55.06 11.02 c0 -0.02 -0.02 -0.02 -0.06 -0.02 c-0.02 0 -0.04 0 -0.04 0.02 s0.02 0.04 0.04 0.04 c0.04 0 0.06 -0.02 0.06 -0.04 z M62.02 20.1 c-0.3 0 -0.6 -0.16 -0.94 -0.28 l-0.44 -0.44 c-0.02 -0.1 -0.22 -0.42 -0.22 -0.68 c0 -2.74 0.1 -4.96 0.1 -6.68 c0 -0.26 -0.02 -0.4 -0.28 -0.4 c-0.06 0 -0.14 0 -0.22 0.02 c-0.04 0 -0.28 -0.02 -0.32 -0.02 c-0.12 0 -0.26 0.06 -0.5 0.06 c-0.06 -0.16 -0.36 0.04 -0.36 -0.32 s0.28 -0.34 0.44 -0.4 c0 0 0.06 0 0.14 0.04 l0.56 0 c0.36 -0.08 0.34 0 0.5 -0.16 c0.06 -2.02 -0.06 -2.18 0.58 -2.18 c0.02 0 0.58 0.02 0.72 0.02 c0.28 0 0.18 -0.12 1.02 -0.12 l-0.02 0 c0.02 0 0.2 0.06 0.22 0.1 c0 1.72 -0.04 1.68 -0.04 2.18 l0.16 0.16 l0.9 0 c0.04 -0.06 0.54 -0.06 0.7 -0.06 l-0.02 0 s0.42 0.08 0.42 0.28 c0 0.26 -0.04 0.42 -0.68 0.42 c-0.34 0 -0.86 -0.02 -1.32 -0.02 c-0.14 0 -0.2 1.2 -0.2 1.7 c0 0.54 0.04 0.8 0.04 1.22 c0 1.14 -0.06 2.66 -0.06 3.08 c0 0.36 0.02 0.7 0.1 0.76 l0 -0.02 c0.04 0 -0.04 0.76 0.76 0.76 c0.44 0 0.46 0 0.78 -0.2 c-0.02 0 0.32 -0.32 0.32 -0.4 l0 -0.02 s0.1 -0.64 0.54 -0.64 c0.26 0 0.36 0.28 0.36 0.46 c0 0.08 -0.22 0.22 -0.22 0.38 c0 0.44 -0.82 0.82 -0.9 1.04 c-0.06 -0.04 -0.18 0.16 -0.26 0.16 c-0.46 0 -0.54 0.2 -1.04 0.2 l-0.02 0 c-0.42 0 -0.8 0.08 -0.8 0.08 l0 0 c-0.16 0 -0.36 -0.04 -0.5 -0.08 z M61.800000000000004 19.86 c0 -0.02 -0.02 -0.02 -0.02 -0.02 l0 0.06 s0.02 -0.02 0.02 -0.04 z M64.12 19.8 c-0.02 0 -0.02 0.02 -0.02 0.04 c0 0 0 0.02 0.02 0.02 l0 -0.06 z M61.7 19.76 c-0.02 0 -0.04 0.02 -0.04 0.04 c0 0 0.02 0.02 0.04 0.02 s0.02 -0.02 0.02 -0.02 c0 -0.02 0 -0.04 -0.02 -0.04 z M61.36 19.6 c-0.02 0 -0.04 0.02 -0.04 0.04 c0 0 0.02 0.02 0.04 0.02 l0.02 -0.02 c0 -0.02 -0.02 -0.04 -0.02 -0.04 z M61.040000000000006 19.54 c-0.02 0 -0.04 0.02 -0.04 0.02 l0.06 0 z M64.8 19.16 l0 0.12 l0.04 -0.04 c0 -0.04 -0.04 -0.08 -0.04 -0.08 z M60.7 19.12 l-0.02 0.02 c0 0.02 0.02 0.02 0.02 0.02 c0.02 0 0.02 0 0.02 -0.02 c0 0 0 -0.02 -0.02 -0.02 z M60.760000000000005 18.84 c0 0.04 0 0.04 0.02 0.04 l0.02 0 l0 0 z M65.48 18.54 c-0.02 0 -0.04 0.02 -0.04 0.02 c0 0.02 0.02 0.02 0.04 0.02 c0 0 0.02 0 0.02 -0.02 z M60.580000000000005 18.14 l0 0.04 l0.06 0 z M65.34 18.06 c-0.02 0 -0.02 0.02 -0.02 0.02 c0 0.02 0 0.02 0.02 0.02 s0.02 0 0.02 -0.02 c0 0 0 -0.02 -0.02 -0.02 z M65.5 18.06 l-0.02 0.04 l0.08 0 z M60.580000000000005 15.98 l0 -0.04 l0 0.04 z M59.040000000000006 11.48 c0 0.02 -0.02 0.02 -0.02 0.04 s0.02 0.02 0.06 0.04 l0 -0.08 l-0.04 0 z M58.96 11.32 l0 0 l-0.02 0 c0 0 -0.02 0.02 -0.02 0.08 c0 0.02 0.02 0.06 0.02 0.06 c0.04 0 0.04 -0.04 0.04 -0.06 c0 -0.04 0 -0.06 -0.02 -0.08 z M64.18 11.36 l0 0.06 c0.04 0 0.04 -0.02 0.04 -0.06 l-0.04 0 z M59.28 11.26 l0 0.06 c0.02 -0.02 0.04 -0.04 0.04 -0.06 l-0.04 0 z M59.080000000000005 11.16 c-0.04 0 -0.12 0.08 -0.12 0.1 l0.2 0 c-0.02 -0.04 -0.06 -0.08 -0.08 -0.1 z M62.220000000000006 9.36 l0 0.1 c0.1 0 0.1 -0.02 0.12 -0.1 l-0.12 0 z M60.7 9.32 c0 0 -0.02 0.02 -0.02 0.04 s0.02 0.04 0.02 0.04 c0.02 0 0.02 -0.02 0.02 -0.04 s0 -0.04 -0.02 -0.04 z M60.7 9.16 l0 0.12 c0.04 -0.02 0.04 -0.06 0.04 -0.12 l-0.04 0 z M61.2 9.08 c0 0.02 -0.02 0.04 0.04 0.04 c0 -0.04 -0.04 -0.04 -0.04 -0.04 z M60.7 8.94 l0 0.1 l0.1 0 c0 -0.06 -0.06 -0.08 -0.1 -0.1 z M62.220000000000006 8.92 l0 0.08 c0.04 -0.02 0.04 -0.06 0.04 -0.08 l-0.04 0 z M62.68 8.76 c0 0 0 0.12 0.08 0.16 l0.04 -0.04 c0 -0.02 -0.02 -0.16 -0.1 -0.16 z"/></g>
			</g>
		</svg>
	